<svg width="30" height="30" viewBox="0 0 30 30" fill="none" xmlns="http://www.w3.org/2000/svg">
<path d="M15 27.5C8.09961 27.4924 2.50759 21.9004 2.50002 15V14.75C2.63743 7.88066 8.29326 2.40993 15.1634 2.50109C22.0335 2.59224 27.5421 8.21109 27.4973 15.0816C27.4524 21.9523 21.8708 27.4986 15 27.5ZM14.98 25H15C20.5209 24.9945 24.9928 20.5159 24.99 14.995C24.9873 9.47411 20.5109 4.99999 14.99 4.99999C9.46912 4.99999 4.99278 9.47411 4.99002 14.995C4.98726 20.5159 9.45913 24.9945 14.98 25ZM16.25 22.5H13.75V20H16.25V22.5ZM16.25 18.75H13.75C13.7105 17.1221 14.5576 15.601 15.9625 14.7775C16.7875 14.145 17.5 13.6 17.5 12.5C17.5 11.1193 16.3808 9.99999 15 9.99999C13.6193 9.99999 12.5 11.1193 12.5 12.5H10V12.3875C10.0201 10.6012 10.9917 8.96124 12.5488 8.08549C14.1058 7.20973 16.0118 7.23117 17.5488 8.14174C19.0856 9.05231 20.0201 10.7137 20 12.5C19.9105 13.8488 19.1871 15.0753 18.05 15.8063C17.0221 16.4515 16.3559 17.541 16.25 18.75Z" fill="#B0BBC1"/>
</svg>
