<svg width="30" height="30" viewBox="0 0 30 30" fill="none" xmlns="http://www.w3.org/2000/svg">
<path d="M17.2749 27.5H12.7249C12.1376 27.5 11.6294 27.0913 11.5037 26.5175L10.9949 24.1625C10.3162 23.8651 9.6727 23.4933 9.07617 23.0538L6.77992 23.785C6.21992 23.9636 5.61116 23.7279 5.31742 23.2188L3.03742 19.28C2.74691 18.7706 2.847 18.1281 3.27867 17.7313L5.05992 16.1063C4.97892 15.3701 4.97892 14.6274 5.05992 13.8913L3.27867 12.27C2.84636 11.873 2.74624 11.2297 3.03742 10.72L5.31242 6.77875C5.60616 6.26963 6.21492 6.03393 6.77492 6.2125L9.07117 6.94375C9.37625 6.7177 9.69383 6.50903 10.0224 6.31875C10.3378 6.14086 10.6625 5.97981 10.9949 5.83625L11.5049 3.48375C11.63 2.90996 12.1377 2.50061 12.7249 2.5H17.2749C17.8621 2.50061 18.3698 2.90996 18.4949 3.48375L19.0099 5.8375C19.3609 5.9919 19.7028 6.16635 20.0336 6.36C20.3424 6.53851 20.6408 6.73424 20.9274 6.94625L23.2249 6.215C23.7845 6.03709 24.3925 6.2727 24.6861 6.78125L26.9611 10.7225C27.2516 11.2319 27.1516 11.8744 26.7199 12.2713L24.9386 13.8963C25.0196 14.6324 25.0196 15.3751 24.9386 16.1113L26.7199 17.7363C27.1516 18.1331 27.2516 18.7756 26.9611 19.285L24.6861 23.2263C24.3925 23.7348 23.7845 23.9704 23.2249 23.7925L20.9274 23.0613C20.6366 23.2754 20.3346 23.4736 20.0224 23.655C19.6946 23.8449 19.3566 24.0164 19.0099 24.1688L18.4949 26.5175C18.3693 27.0908 17.8618 27.4995 17.2749 27.5ZM9.52492 20.2863L10.5499 21.0363C10.781 21.2065 11.0218 21.363 11.2712 21.505C11.5058 21.6409 11.7474 21.7644 11.9949 21.875L13.1611 22.3863L13.7324 25H16.2699L16.8411 22.385L18.0074 21.8738C18.5165 21.6493 18.9998 21.3701 19.4486 21.0413L20.4749 20.2913L23.0261 21.1038L24.2949 18.9063L22.3161 17.1025L22.4561 15.8375C22.5176 15.2843 22.5176 14.7258 22.4561 14.1725L22.3161 12.9075L24.2961 11.1L23.0261 8.90125L20.4749 9.71375L19.4486 8.96375C18.9996 8.63339 18.5165 8.35219 18.0074 8.125L16.8411 7.61375L16.2699 5H13.7324L13.1586 7.615L11.9949 8.125C11.7472 8.2338 11.5056 8.35608 11.2712 8.49125C11.0233 8.63291 10.7838 8.78858 10.5537 8.9575L9.52742 9.7075L6.97742 8.895L5.70617 11.1L7.68492 12.9013L7.54492 14.1675C7.48342 14.7208 7.48342 15.2793 7.54492 15.8325L7.68492 17.0975L5.70617 18.9013L6.97492 21.0988L9.52492 20.2863ZM14.9949 20C12.2335 20 9.99492 17.7614 9.99492 15C9.99492 12.2386 12.2335 10 14.9949 10C17.7564 10 19.9949 12.2386 19.9949 15C19.9915 17.76 17.7549 19.9965 14.9949 20ZM14.9949 12.5C13.6291 12.5014 12.5173 13.5985 12.4977 14.9641C12.4781 16.3298 13.5581 17.4584 14.9233 17.4989C16.2884 17.5394 17.4335 16.4769 17.4949 15.1125V15.6125V15C17.4949 13.6193 16.3756 12.5 14.9949 12.5Z" fill="#B0BBC1"/>
</svg>
