<svg width="30" height="30" viewBox="0 0 30 30" fill="none" xmlns="http://www.w3.org/2000/svg">
<path d="M11.25 3.75C7.7982 3.75 4.99998 6.54822 4.99998 10C4.99998 13.4517 7.7982 16.25 11.25 16.25C14.7017 16.25 17.5 13.4517 17.5 10C17.5 6.54822 14.7017 3.75 11.25 3.75ZM7.49998 10C7.49998 7.92894 9.17891 6.25 11.25 6.25C13.3211 6.25 15 7.92894 15 10C15 12.0711 13.3211 13.75 11.25 13.75C9.17891 13.75 7.49998 12.0711 7.49998 10Z" fill="#B0BBC1"/>
<path d="M21.1355 10.2728C20.7839 10.0935 20.3948 10.0001 20 10.0001V7.50006C20.7895 7.50006 21.5678 7.68694 22.2711 8.04555C22.3486 8.08505 22.4249 8.1265 22.5 8.16986C23.1068 8.52016 23.634 8.9946 24.0466 9.56317C24.5104 10.2021 24.8161 10.9418 24.939 11.7217C25.062 12.5016 24.9984 13.2995 24.7536 14.0501C24.5089 14.8006 24.0899 15.4826 23.5309 16.0401C22.9719 16.5977 22.2889 17.0149 21.5376 17.2577C20.8691 17.4737 20.1635 17.5462 19.4669 17.4715C19.3808 17.4622 19.2946 17.4507 19.2088 17.437C18.4298 17.3121 17.6914 17.0047 17.0539 16.5399L17.0526 16.5389L18.5263 14.5195C18.8451 14.7521 19.2146 14.906 19.6044 14.9684C19.9941 15.0309 20.3931 15.0001 20.7688 14.8787C21.1444 14.7574 21.4859 14.5487 21.7654 14.27C22.0449 13.9912 22.2544 13.6502 22.3768 13.275C22.4991 12.8997 22.5309 12.5007 22.4695 12.1108C22.408 11.7209 22.2551 11.3511 22.0233 11.0316C21.7914 10.7122 21.4873 10.4521 21.1355 10.2728Z" fill="#B0BBC1"/>
<path d="M24.9976 26.25C24.9976 25.5938 24.8684 24.9439 24.6172 24.3375C24.366 23.7311 23.9979 23.1802 23.5339 22.7161C23.0697 22.2521 22.5189 21.884 21.9125 21.6328C21.3061 21.3816 20.6562 21.2524 20 21.2524V18.75C20.8526 18.75 21.698 18.8954 22.5 19.1789C22.6245 19.2229 22.7479 19.2703 22.8701 19.3209C23.7801 19.6979 24.6069 20.2503 25.3032 20.9468C25.9997 21.6431 26.5521 22.4699 26.9291 23.3799C26.9797 23.5021 27.0271 23.6255 27.0711 23.75C27.3546 24.552 27.5 25.3974 27.5 26.25H24.9976Z" fill="#B0BBC1"/>
<path d="M20 26.25H17.5C17.5 22.7983 14.7018 20 11.25 20C7.79824 20 5.00002 22.7983 5.00002 26.25H2.50002C2.50002 21.4175 6.41753 17.5 11.25 17.5C16.0825 17.5 20 21.4175 20 26.25Z" fill="#B0BBC1"/>
</svg>
